<svg id="Layer_1" data-name="Layer 1" xmlns="http://www.w3.org/2000/svg" viewBox="0 0 2560 295.02"><defs><style>.cls-1{fill:#faeced;}.cls-2{fill:none;stroke:#000;stroke-miterlimit:10;}.cls-3{fill:#98d4f3;}.cls-4{fill:#fff;}</style></defs><title>svgAQUA</title><path class="cls-1" d="M2217.5-189"/><path class="cls-2" d="M2190.5-440.5"/><path class="cls-3" d="M0,169c733,13.61,1031.46,27.53,1137,39.61,16.14,1.85,73.15,11.53,148.2,3.6C1363,204,1418,179.46,1514.55,162,1747.63,119.88,1910,197.37,2425,192c60-.63,108.13-2.68,135-4q-.5-94-1-188H0Z"/><path class="cls-1" d="M0,169C45.18,126.92,121.09,69.19,225,52.42,412.45,22.17,498.94,156.21,727,170.88c171.36,11,190.67-60.27,410-88.38,180.29-23.11,231,20.5,377.55,47.5,68.53,12.62,118.37,15.48,186.45,18.34,335.94,14.14,493.16-125.48,724-48.89,31.72,10.53,80.37,30.29,135,69.57q-.5,63-1,126H0Z"/><path class="cls-1" d="M99,94a229.8,229.8,0,0,1,64.08-44.09C250.85,9.64,337.24,39,361,48a246.48,246.48,0,0,0-27-6c-22.15-3.63-39.35-3.34-52.63-3.06a406.19,406.19,0,0,0-48.71,4.4C172.08,53.12,111.44,86.93,99,94Z"/><path class="cls-4" d="M459,132.58l97.91,23.1,68.8,16.24q-23.15-3.27-47.3-7.91A929.66,929.66,0,0,1,459,132.58Z"/><path class="cls-1" d="M933.64,126.26a440.12,440.12,0,0,1,66.7-30.93c82.69-30.52,160.53-33.72,194.85-33.84-6.52,1.68-16.36,4.14-28.38,6.84-48.52,10.9-84.69,15-97.35,16.68C1039.53,89,995.14,99.07,933.64,126.26Z"/><path class="cls-4" d="M1981.89,135.42l99.21-16.66,69.72-11.69q-22.61,6-46.67,11A929.66,929.66,0,0,1,1981.89,135.42Z"/><path class="cls-4" d="M1280,87.58l97.91,23.1,68.8,16.24q-23.15-3.27-47.3-7.91A929.66,929.66,0,0,1,1280,87.58Z"/><path class="cls-4" d="M2252.76,102.6a472.52,472.52,0,0,1,239.29,52.17A314.63,314.63,0,0,0,2425,119C2353.33,91.34,2288.18,96.72,2252.76,102.6Z"/><path class="cls-4" d="M855.61,182.94l63-17.55,44.24-12.32c-9.58,4.11-19.46,8-29.65,11.46A395.56,395.56,0,0,1,855.61,182.94Z"/><path class="cls-4" d="M2184-197"/></svg>